# xmcd
#
# Track frame offsets: 
#        150
#        27250
#        47425
#        65698
#        85405
#        100783
#        117460
#        135098
#        154055
#        173353
#        185558
#        203790
#        224600
#
# Disc length: 3188 seconds
#
# Revision: 1
# Processed by: cddbd v1.5.2PL0 Copyright (c) Steve Scherf et al.
# Submitted via: ExactAudioCopy v1.0b3
#
DISCID=ad0c720d
DTITLE=Price, Toni - Midnight Pumpkin
DYEAR=2001
DGENRE=Blues
TTITLE0=Start Of Somethin' Good
TTITLE1=Thank You For The Love
TTITLE2=Work On It
TTITLE3=Something In The Water
TTITLE4=The Right Kind Of Man
TTITLE5=Call Of My Heart
TTITLE6=Darlin'
TTITLE7=Measure For Measure
TTITLE8=I Want To Do Everything For You
TTITLE9=Who Needs Tears
TTITLE10=Like You Used To
TTITLE11=Keep This Love Alive
TTITLE12=We Just Couldn't Say Goodbye
EXTD=
EXTT0=
EXTT1=
EXTT2=
EXTT3=
EXTT4=
EXTT5=
EXTT6=
EXTT7=
EXTT8=
EXTT9=
EXTT10=
EXTT11=
EXTT12=
PLAYORDER=
